<svg width="0" height="0" class="hidden">
  <symbol xmlns="http://www.w3.org/2000/svg" viewBox="0 0 30 31" id="basket">
    <g clip-path="url(#clip0)" fill-rule="evenodd" clip-rule="evenodd">
      <path d="M11.25 26.438a.312.312 0 100 .624.312.312 0 000-.625zm-2.188.312a2.188 2.188 0 114.376 0 2.188 2.188 0 01-4.376 0zM25 26.438a.312.312 0 100 .624.312.312 0 000-.625zm-2.188.312a2.188 2.188 0 114.376 0 2.188 2.188 0 01-4.375 0zM.313 1.75c0-.518.42-.938.937-.938h5c.447 0 .832.316.92.754l1.1 5.496h20.48a.938.938 0 01.92 1.114l-2 10.494a3.437 3.437 0 01-3.428 2.767H12.108a3.438 3.438 0 01-3.427-2.766L6.59 8.23a.932.932 0 01-.018-.089l-1.09-5.454H1.25a.938.938 0 01-.938-.937zm8.332 7.188l1.875 9.367a1.563 1.563 0 001.562 1.258h12.186a1.562 1.562 0 001.562-1.255v-.003l1.787-9.367H8.645z"></path>
    </g>
    <defs>
      <clipPath id="clip0">
        <path transform="translate(0 .5)" d="M0 0h30v30H0z"></path>
      </clipPath>
    </defs>
  </symbol>
  <symbol xmlns="http://www.w3.org/2000/svg" viewBox="0 0 11 22" id="facebook">
    <path fill-rule="evenodd" clip-rule="evenodd" d="M7.085 21.76V10.878h3.003l.398-3.75H7.085l.005-1.876c0-.978.093-1.502 1.497-1.502h1.878V0H7.461C3.853 0 2.583 1.819 2.583 4.878v2.251H.333v3.75h2.25v10.88h4.502z"></path>
  </symbol>
  <symbol xmlns="http://www.w3.org/2000/svg" viewBox="0 0 22 22" id="instargam">
    <path fill-rule="evenodd" clip-rule="evenodd" d="M6.603.398C7.74.346 8.104.333 11 .333h-.003c2.898 0 3.26.013 4.398.065 1.135.052 1.91.232 2.59.495a5.212 5.212 0 011.89 1.23 5.235 5.235 0 011.23 1.89c.263.678.443 1.453.496 2.589.051 1.138.065 1.501.065 4.398s-.014 3.26-.065 4.398c-.053 1.135-.233 1.91-.495 2.588a5.237 5.237 0 01-1.232 1.89 5.219 5.219 0 01-1.888 1.23c-.678.265-1.454.444-2.59.496-1.138.052-1.5.065-4.397.065-2.897 0-3.26-.013-4.398-.065-1.135-.052-1.91-.231-2.59-.495a5.223 5.223 0 01-1.888-1.231 5.227 5.227 0 01-1.23-1.89C.63 17.308.45 16.533.397 15.397.346 14.26.333 13.897.333 11c0-2.897.014-3.26.065-4.398.05-1.136.23-1.91.495-2.59a5.236 5.236 0 011.231-1.889 5.223 5.223 0 011.89-1.23C4.692.63 5.467.45 6.603.398zm4.043 1.857h-.602v-.002c-1.988.002-2.37.015-3.353.06-1.04.048-1.605.221-1.98.368a3.31 3.31 0 00-1.228.798 3.305 3.305 0 00-.798 1.227c-.146.376-.32.94-.367 1.98-.051 1.125-.061 1.46-.061 4.309s.01 3.186.06 4.31c.048 1.04.222 1.605.368 1.98.194.499.425.853.798 1.227.374.373.73.604 1.227.797.376.146.94.32 1.98.368 1.125.051 1.463.063 4.311.063s3.186-.012 4.31-.063c1.04-.047 1.605-.22 1.98-.367a3.3 3.3 0 001.227-.798c.373-.373.604-.728.798-1.225.146-.376.32-.94.367-1.98.051-1.125.062-1.463.062-4.31 0-2.846-.01-3.184-.062-4.308-.047-1.04-.221-1.605-.367-1.98a3.311 3.311 0 00-.798-1.227 3.299 3.299 0 00-1.226-.798c-.376-.146-.94-.32-1.98-.367-1.125-.051-1.463-.061-4.31-.061h-.357zM5.522 11a5.477 5.477 0 1110.955 0 5.477 5.477 0 01-10.955 0zm9.034 0a3.556 3.556 0 10-7.112 0 3.556 3.556 0 007.112 0zm.858-5.694a1.28 1.28 0 112.56 0 1.28 1.28 0 01-2.56 0z"></path>
  </symbol>
  <symbol xmlns="http://www.w3.org/2000/svg" viewBox="0 0 24 24" id="smartphone">
    <path d="M17 2H7a2 2 0 00-2 2v16a2 2 0 002 2h10a2 2 0 002-2V4a2 2 0 00-2-2zm-5 16h.01" stroke="#1E2E36" stroke-width="1.5" stroke-linecap="round" stroke-linejoin="round" fill="#fff"></path>
  </symbol>
  <symbol xmlns="http://www.w3.org/2000/svg" viewBox="0 0 22 19" id="telegram">
    <path fill-rule="evenodd" clip-rule="evenodd" d="M8.674 12.069v-.001l9.273-8.369c.407-.361-.089-.537-.629-.21L5.873 10.71.929 9.167c-1.068-.327-1.076-1.06.24-1.588L20.432.151c.88-.4 1.73.211 1.394 1.558l-3.281 15.46c-.23 1.099-.893 1.362-1.813.854l-4.998-3.692-2.402 2.336-.022.022c-.269.261-.491.478-.978.478l.34-5.098z"></path>
  </symbol>
</svg>